<?xml version="1.0" standalone="no"?>
<!DOCTYPE svg PUBLIC "-//W3C//DTD SVG 20010904//EN"
 "http://www.w3.org/TR/2001/REC-SVG-20010904/DTD/svg10.dtd">
<svg version="1.0" xmlns="http://www.w3.org/2000/svg"
 width="529.000000pt" height="431.000000pt" viewBox="0 0 529.000000 431.000000"
 preserveAspectRatio="xMidYMid meet">

<g transform="translate(0.000000,431.000000) scale(0.100000,-0.100000)"
fill="#000000" stroke="none">
<path d="M2461 4230 c-493 -48 -941 -260 -1291 -610 -322 -323 -524 -724 -590
-1172 -37 -246 -22 -584 35 -809 41 -165 120 -366 200 -510 25 -45 45 -85 45
-88 0 -4 -34 -15 -75 -25 -41 -10 -85 -26 -98 -36 -14 -11 -32 -17 -44 -14
-16 5 -21 1 -20 -13 2 -16 -7 -18 -73 -19 -59 -1 -98 -10 -180 -39 -130 -46
-360 -135 -360 -140 0 -2 58 -46 130 -99 81 -60 130 -102 130 -113 0 -10 -5
-75 -11 -146 -7 -70 -10 -130 -7 -133 3 -2 50 13 104 34 173 69 530 182 574
182 16 0 57 -98 157 -380 9 -25 17 -46 18 -48 1 -1 24 7 50 18 72 31 296 96
458 134 l146 34 108 -43 c376 -153 801 -192 1208 -110 121 24 353 98 428 136
32 17 50 20 91 14 113 -15 532 -132 636 -179 12 -5 19 3 29 31 44 127 135 369
141 376 12 14 324 -81 533 -163 60 -23 110 -40 113 -38 2 3 1 19 -2 35 -6 30
-10 32 -220 102 -117 39 -220 71 -228 71 -10 0 -13 6 -10 15 4 8 12 15 20 15
11 0 321 -98 372 -118 12 -4 14 10 7 90 l-7 96 81 58 c45 31 81 61 81 65 0 12
-387 142 -487 164 -35 7 -43 22 -19 31 18 7 230 -56 435 -129 l151 -54 32 27
32 27 -135 53 c-243 96 -328 122 -397 121 -56 -1 -64 1 -69 19 -4 14 -11 19
-21 15 -8 -3 -22 1 -31 9 -9 8 -54 24 -101 36 -47 13 -86 24 -88 25 -1 1 19
40 45 86 133 237 225 529 254 808 15 142 6 422 -16 546 -40 221 -100 406 -191
593 -162 329 -424 625 -734 828 -249 163 -541 274 -837 318 -128 20 -380 27
-502 16z m382 -76 c475 -52 869 -231 1204 -547 702 -664 833 -1755 307 -2565
-105 -162 -283 -366 -310 -355 -10 3 8 28 57 82 287 307 457 655 525 1076 27
165 25 449 -5 619 -115 654 -510 1183 -1096 1467 -245 119 -476 180 -738 197
-569 37 -1112 -162 -1520 -557 -392 -379 -607 -887 -607 -1431 0 -509 193
-1001 532 -1356 62 -64 88 -98 81 -105 -7 -7 -35 15 -86 68 -302 311 -496 729
-548 1183 -15 131 -7 412 15 535 81 448 271 812 582 1115 185 180 326 279 547
385 215 103 427 162 677 189 169 19 217 19 383 0z m-300 -166 c-6 -61 11 -94
41 -82 16 6 18 16 14 70 -4 61 -3 64 18 64 25 0 40 -15 24 -25 -5 -3 -10 -30
-10 -59 0 -60 -12 -76 -55 -76 -46 0 -57 13 -63 71 -2 30 -9 59 -14 66 -6 8
-3 13 9 16 40 10 42 8 36 -45z m177 44 c0 -4 -5 -13 -11 -19 -7 -7 -10 -35 -7
-72 4 -56 3 -61 -16 -61 -19 0 -21 6 -21 80 l0 80 28 0 c15 0 27 -4 27 -8z
m98 2 c25 -7 31 -44 7 -44 -8 0 -15 5 -15 10 0 6 -9 10 -20 10 -31 0 -23 -26
15 -49 37 -22 41 -31 25 -62 -16 -28 -100 -28 -100 0 0 27 17 35 28 15 6 -10
16 -15 26 -11 25 10 19 36 -9 43 -33 8 -49 37 -35 63 15 28 37 36 78 25z
m-358 -22 c30 -25 38 -90 13 -120 -25 -32 -80 -33 -105 -2 -28 35 -24 94 8
119 33 26 55 26 84 3z m498 -19 c4 -27 -6 -30 -23 -6 -7 9 -19 14 -29 10 -24
-9 -20 -25 13 -41 16 -9 31 -23 35 -31 8 -21 -9 -52 -33 -60 -25 -8 -71 11
-71 29 0 22 19 30 26 12 9 -24 44 -20 44 4 0 11 -5 20 -12 20 -18 0 -48 31
-48 50 0 27 23 41 60 38 28 -2 36 -8 38 -25z m-634 -10 c-3 -16 -1 -50 4 -76
13 -66 -4 -70 -58 -15 l-42 43 6 -35 c4 -18 12 -37 18 -41 17 -10 6 -19 -34
-29 -18 -5 -43 -12 -55 -15 -19 -6 -23 -4 -23 15 0 16 -4 20 -16 16 -9 -3 -20
-6 -25 -6 -5 0 -7 -11 -3 -25 4 -15 2 -25 -4 -25 -6 0 -17 -2 -24 -5 -11 -5
-13 7 -10 60 3 42 0 70 -8 80 -10 12 -8 16 15 25 14 5 28 10 29 10 2 0 22 -27
45 -60 42 -60 54 -69 66 -50 9 14 -14 110 -26 110 -18 0 -9 19 12 25 16 6 31
-3 65 -36 l44 -44 -6 35 c-4 19 -12 38 -18 43 -13 9 10 27 36 27 14 0 16 -6
12 -27z m739 12 c28 -4 37 -11 37 -25 0 -11 -7 -20 -15 -20 -8 0 -15 5 -15 10
0 6 -9 10 -20 10 -12 0 -20 -7 -20 -16 0 -9 9 -18 20 -21 28 -7 25 -23 -5 -23
-14 0 -25 -2 -25 -4 0 -2 -3 -12 -7 -22 -6 -15 -2 -16 31 -11 32 5 37 3 34
-11 -3 -13 -14 -17 -44 -16 -22 0 -48 3 -58 7 -16 6 -16 8 0 32 9 13 17 47 17
75 2 39 5 49 17 46 8 -2 32 -7 53 -11z m98 -25 c14 -8 19 -21 19 -55 0 -25 3
-45 6 -45 4 0 21 16 38 36 24 28 37 35 52 30 l21 -6 -19 -40 c-11 -22 -20 -56
-21 -75 -1 -31 -4 -34 -21 -29 -28 9 -30 12 -19 26 6 7 13 27 17 43 l6 30 -29
-34 c-33 -37 -51 -34 -51 9 0 16 -4 31 -9 34 -11 7 -23 -37 -15 -58 7 -17 1
-19 -34 -10 -20 6 -21 9 -9 23 19 22 39 95 31 115 -7 18 8 21 37 6z m-1143
-62 c21 -21 14 -66 -13 -84 -28 -18 -33 -44 -10 -44 20 0 19 -16 -1 -24 -29
-11 -44 -6 -44 14 0 22 -30 92 -45 102 -13 9 0 20 38 35 42 15 60 16 75 1z
m1365 -9 c24 -8 37 -19 37 -31 0 -22 -16 -23 -36 -3 -20 19 -30 19 -38 0 -4
-10 3 -20 19 -27 35 -16 31 -32 -5 -24 -23 4 -32 2 -37 -10 -7 -19 16 -36 40
-28 19 6 25 -20 7 -31 -11 -7 -100 23 -100 33 0 3 7 13 15 22 8 9 21 40 28 69
6 28 16 50 22 48 5 -2 27 -10 48 -18z m-1498 -49 c0 -9 -10 -15 -25 -15 -16 0
-26 -7 -28 -18 -3 -16 1 -18 26 -12 38 8 50 -8 17 -23 -16 -7 -23 -17 -19 -27
8 -19 44 -20 44 0 0 8 7 15 16 15 10 0 14 -7 12 -21 -4 -26 -88 -67 -88 -43 0
21 -40 97 -58 110 -13 10 -10 15 24 33 44 23 79 24 79 1z m1586 10 c10 -6 19
-21 19 -34 0 -13 3 -38 6 -56 l7 -32 13 23 c7 13 13 34 14 47 0 26 3 27 33 8
12 -8 47 -28 77 -43 54 -28 73 -60 43 -70 -7 -3 -13 2 -13 11 0 9 -4 16 -9 16
-14 0 -55 -71 -54 -92 2 -21 -15 -23 -39 -4 -21 16 -23 26 -5 26 14 0 57 68
57 89 0 7 -8 11 -17 9 -12 -2 -18 3 -17 15 3 35 -23 15 -49 -38 -36 -74 -53
-72 -64 8 l-10 62 -15 -34 c-9 -19 -14 -41 -11 -48 6 -14 -6 -17 -31 -7 -16 6
-23 34 -8 34 12 0 42 67 42 95 0 28 3 29 31 15z m-1701 -83 c0 -20 -25 1 -28
24 -2 23 -2 23 13 5 8 -11 15 -24 15 -29z m-102 -24 c-2 -26 41 -93 59 -93 8
0 17 9 20 20 3 11 9 20 13 20 9 0 25 -39 18 -44 -16 -12 -77 -46 -82 -46 -3 0
-6 7 -6 15 0 17 -47 96 -64 108 -7 5 -5 12 8 22 26 20 35 19 34 -2z m1317 -52
c273 -64 538 -196 710 -356 78 -72 39 -65 -55 10 -197 157 -416 263 -652 314
-460 99 -947 -14 -1308 -304 -73 -58 -106 -78 -122 -73 -5 2 23 31 64 64 233
194 491 312 783 360 125 21 464 12 580 -15z m-1417 -33 c7 -7 12 -22 12 -34 0
-15 10 -26 30 -34 35 -14 38 -25 11 -40 -26 -13 -31 -13 -31 4 0 19 -17 29
-35 22 -18 -6 -9 -36 11 -36 20 0 17 -14 -5 -34 -19 -17 -20 -17 -35 15 -18
41 -50 79 -66 79 -20 0 -5 24 30 48 37 25 60 28 78 10z m1213 -28 c251 -24
484 -103 680 -230 35 -23 55 -39 44 -36 -11 3 -58 17 -104 31 -334 100 -732
134 -1051 91 -145 -19 -352 -63 -463 -97 -38 -12 -70 -19 -73 -16 -7 7 87 64
187 114 239 116 521 168 780 143z m1073 -9 c17 -19 17 -22 -3 -76 -12 -31 -21
-65 -21 -75 0 -25 -12 -25 -34 -1 -16 18 -16 20 -1 29 16 8 15 11 -5 25 -22
15 -24 15 -36 -1 -10 -14 -14 -14 -28 -3 -18 15 -21 31 -5 31 18 0 99 63 99
77 0 19 14 16 34 -6z m-2414 -32 c0 -6 14 -28 30 -49 36 -45 39 -83 8 -104
-36 -25 -64 -20 -93 19 -15 19 -36 37 -47 41 -18 6 -19 7 -2 25 20 22 34 25
34 6 0 -7 15 -28 34 -46 35 -34 66 -37 66 -6 0 22 -52 85 -69 85 -11 0 -10 5
4 20 20 22 35 26 35 9z m2542 -78 c28 -25 30 -31 19 -45 -18 -21 -33 -20 -29
2 7 45 -35 56 -71 18 -31 -33 -25 -70 12 -74 30 -4 34 -14 12 -32 -16 -13 -34
-5 -62 29 -37 43 12 127 74 130 7 1 27 -12 45 -28z m-2621 -70 c32 -32 37 -65
14 -98 -19 -28 -46 -33 -84 -17 -34 14 -63 66 -53 93 20 58 77 68 123 22z
m2701 -104 c-53 -100 -35 -118 42 -43 l45 45 31 -35 c37 -43 38 -77 3 -110
-45 -42 -86 -31 -147 40 -32 37 -46 61 -38 63 17 6 15 28 -4 44 -13 10 -17 10
-24 -2 -7 -10 -14 -11 -27 -3 -23 14 -28 34 -9 34 26 0 116 49 116 62 0 7 10
2 23 -10 l22 -23 -33 -62z m-1086 68 c259 -36 548 -117 817 -230 l38 -16 -3
-787 -3 -787 -27 -81 c-68 -200 -221 -354 -573 -574 -86 -54 -137 -80 -158
-80 -25 0 -4 16 123 96 85 52 176 111 204 131 166 120 287 246 341 357 56 114
55 97 55 933 l0 772 -21 12 c-52 27 -329 121 -455 154 -522 135 -973 119
-1509 -55 -66 -22 -158 -55 -205 -74 l-85 -34 -3 -734 c-3 -806 -2 -836 53
-955 79 -172 222 -303 553 -508 78 -49 142 -92 142 -97 0 -21 -45 -1 -179 83
-298 187 -456 330 -531 482 -71 145 -70 133 -68 988 l3 762 70 29 c278 115
635 205 901 227 135 12 385 5 520 -14z m-1730 -80 c4 -16 0 -35 -10 -50 -17
-26 -17 -27 22 -37 9 -2 9 -8 -3 -26 -18 -25 -35 -29 -35 -9 0 15 -72 77 -89
77 -16 0 -14 8 10 42 38 53 92 55 105 3z m1742 -20 c190 -27 404 -83 617 -161
l125 -46 0 -737 c0 -630 -2 -745 -15 -796 -55 -211 -201 -351 -656 -628 l-126
-77 -81 0 -82 0 0 123 c0 122 -6 147 -36 147 -7 0 -20 -7 -28 -16 -13 -12 -16
-40 -16 -135 l0 -119 -40 0 -40 0 0 124 c0 101 -3 126 -16 137 -11 9 -20 10
-32 2 -14 -8 -17 -31 -20 -135 l-3 -125 -77 -6 -77 -5 -170 106 c-259 160
-352 228 -450 326 -96 96 -146 176 -171 270 -11 41 -14 198 -14 797 l0 746 58
23 c265 103 546 173 802 200 115 12 421 4 548 -15z m-1914 -120 c-23 -19 -24
-22 -10 -34 14 -11 19 -10 35 10 23 28 38 20 21 -11 -9 -16 -8 -25 1 -37 12
-13 14 -13 25 2 7 9 10 23 7 31 -6 16 -2 17 21 8 22 -8 20 -16 -11 -64 -26
-39 -28 -40 -43 -22 -21 27 -75 62 -94 62 -23 0 -20 11 15 59 25 36 33 40 45
30 13 -11 12 -15 -12 -34z m3208 -17 c15 -23 24 -46 22 -50 -10 -16 -34 -8
-34 11 0 25 -18 37 -33 22 -9 -9 -8 -16 1 -31 15 -25 15 -30 -2 -30 -8 0 -16
7 -20 15 -6 17 -32 20 -41 5 -8 -13 14 -42 26 -34 5 3 9 -2 9 -10 0 -31 -24
-29 -52 4 -29 35 -36 60 -17 60 13 0 81 50 92 67 13 20 20 16 49 -29z m-2925
-161 c-113 -168 -196 -363 -238 -555 -30 -140 -37 -400 -15 -549 62 -418 298
-806 636 -1044 72 -51 86 -65 69 -67 -26 -4 -92 40 -206 138 -251 214 -441
540 -514 878 -30 141 -37 400 -15 551 34 228 124 460 253 653 93 139 87 132
91 109 2 -11 -25 -60 -61 -114z m2593 51 c404 -575 396 -1329 -19 -1882 -134
-178 -386 -401 -427 -378 -15 9 -15 11 7 22 102 54 319 263 423 408 299 419
367 987 176 1476 -43 110 -120 251 -181 333 -33 44 -51 93 -34 93 2 0 27 -33
55 -72z m-2925 42 c0 -8 -6 -14 -12 -12 -7 1 -13 -4 -13 -11 0 -14 65 -52 88
-52 21 0 24 -17 7 -39 -14 -18 -16 -18 -27 -4 -14 18 -78 58 -92 58 -4 0 -6
-7 -3 -15 8 -18 -8 -29 -27 -18 -12 7 -10 17 16 61 20 35 36 52 47 50 9 -2 16
-10 16 -18z m3315 -20 c9 -17 5 -27 -21 -60 -18 -22 -30 -42 -28 -44 2 -2 26
-1 52 4 40 6 49 4 57 -11 14 -24 13 -29 -6 -29 -20 0 -84 -37 -102 -59 -11
-14 -14 -14 -22 -1 -16 25 -11 34 28 52 l37 16 -42 1 c-48 1 -52 10 -22 52 11
16 18 29 15 29 -17 0 -56 -25 -56 -37 0 -18 -10 -16 -26 5 -18 22 -17 32 1 32
25 0 105 43 105 57 0 20 18 16 30 -7z m-3400 -90 c0 -8 91 -61 105 -60 8 0 8
-4 0 -29 -6 -21 -9 -23 -19 -9 -13 18 -89 58 -111 58 -18 0 -19 5 -5 31 11 20
30 26 30 9z m508 -1490 c80 -223 219 -364 596 -605 l98 -62 -103 -13 c-101
-13 -104 -12 -149 11 -81 43 -234 165 -326 261 -194 204 -322 446 -386 729
-20 90 -23 131 -23 309 0 227 10 290 70 476 36 109 83 209 149 317 l41 68 5
-713 5 -713 23 -65z m2501 1396 c88 -144 148 -302 183 -480 29 -144 31 -411 4
-556 -75 -410 -331 -788 -681 -1005 l-70 -43 -102 11 c-57 6 -103 13 -103 16
0 3 55 40 123 83 177 111 272 184 374 291 72 76 99 113 137 190 75 151 75 153
76 915 0 364 2 662 4 662 3 0 27 -38 55 -84z m-3049 25 c0 -10 95 -53 107 -49
11 4 14 -13 7 -34 -4 -15 -9 -14 -41 8 -46 31 -55 23 -19 -15 34 -35 27 -51
-22 -51 -37 -1 -37 -1 -13 -14 14 -8 31 -12 38 -9 8 3 13 -3 13 -15 0 -24 -19
-40 -29 -24 -10 17 -93 51 -108 45 -11 -4 -14 1 -11 18 3 21 9 24 56 27 28 2
52 6 52 10 0 3 -14 20 -31 38 -23 24 -29 38 -24 53 6 21 25 30 25 12z m3534
-18 c9 -28 6 -38 -9 -35 -17 3 -96 -35 -107 -52 -6 -8 -11 -6 -18 4 -14 22
-12 40 5 40 20 0 105 42 105 52 0 15 19 8 24 -9z m40 -95 c42 -60 -4 -124 -81
-115 -42 4 -43 4 -43 -24 0 -48 -18 -33 -22 19 -8 93 24 141 94 142 27 0 41
-6 52 -22z m-3589 -92 c46 -19 62 -54 44 -92 -21 -42 -62 -53 -107 -29 -31 17
-37 26 -40 57 -2 27 3 43 17 57 25 25 40 26 86 7z m3635 -13 c0 -5 3 -19 7
-32 5 -20 3 -23 -10 -18 -9 3 -37 -1 -62 -10 -38 -12 -46 -19 -43 -37 3 -18 9
-21 47 -19 24 1 52 9 62 19 18 16 19 15 29 -10 13 -36 13 -39 -5 -33 -8 4 -40
1 -71 -6 -54 -11 -57 -11 -75 12 -22 27 -25 64 -6 79 6 5 29 16 50 23 21 7 43
19 49 26 11 14 28 17 28 6z m-3723 -139 c2 -6 -5 -14 -17 -17 -46 -12 -9 -67
45 -67 41 0 64 30 39 51 -19 15 -4 32 20 23 15 -6 17 -14 12 -43 -7 -44 -28
-61 -78 -61 -62 0 -95 53 -72 115 7 18 45 17 51 -1z m3781 -74 c8 -34 8 -46
-1 -52 -21 -14 -29 -9 -24 15 8 28 -5 49 -25 42 -9 -4 -13 -15 -11 -29 7 -33
-15 -43 -23 -11 -4 16 -13 25 -25 25 -23 0 -26 -35 -3 -44 20 -8 9 -26 -16
-26 -15 0 -20 10 -25 45 -4 24 -8 47 -9 51 0 3 20 7 47 9 26 1 57 10 70 18 27
18 31 14 45 -43z m-3698 -320 c28 -28 25 -64 -6 -89 -35 -27 -59 -26 -89 4
-30 29 -31 45 -4 79 25 32 70 35 99 6z m3629 -6 c27 -34 26 -50 -4 -79 -28
-29 -55 -32 -83 -7 -31 27 -35 55 -11 85 28 36 70 36 98 1z m-119 -441 c36
-15 68 -32 72 -38 12 -17 -14 -33 -77 -47 -41 -9 -61 -19 -63 -30 -3 -13 8
-18 52 -23 30 -4 59 -4 65 0 7 4 11 -5 11 -24 0 -32 -8 -39 -27 -20 -6 6 -37
12 -69 14 l-59 4 3 33 c6 70 8 73 56 73 76 0 72 28 -6 41 -28 5 -38 11 -38 25
0 24 3 24 80 -8z m-3340 -123 c0 -40 -7 -49 -26 -30 -14 14 -152 1 -169 -17
-20 -19 -32 -16 -39 10 -10 39 -7 67 9 67 8 0 15 -5 15 -10 0 -12 173 -1 178
12 2 4 10 8 18 8 10 0 14 -12 14 -40z m3278 -90 l27 -31 39 21 c22 11 41 18
44 16 2 -3 1 -18 -3 -35 -7 -31 -19 -39 -30 -21 -3 5 -12 7 -21 3 -18 -7 0
-33 23 -33 17 0 13 -27 -12 -87 -12 -29 -18 -33 -40 -27 -30 7 -33 -8 -5 -27
19 -14 19 -15 -6 -69 -22 -46 -28 -52 -37 -39 -13 18 -57 43 -57 33 0 -3 9
-19 21 -35 27 -38 18 -48 -34 -42 -40 5 -41 4 -22 -11 11 -8 28 -16 37 -16 24
0 28 -12 12 -34 -13 -18 -15 -18 -46 13 -17 17 -44 37 -60 43 -30 14 -37 35
-15 44 8 3 32 1 55 -5 50 -11 56 3 17 39 -14 13 -25 31 -25 41 0 21 20 36 29
22 3 -6 26 -20 50 -32 56 -29 72 -17 48 34 -18 37 -30 41 -71 25 -30 -11 -37
-3 -25 29 8 20 12 21 25 11 11 -10 18 -10 27 -1 9 9 7 13 -11 17 -24 7 -28 20
-12 44 9 13 11 13 19 0 30 -48 37 -53 73 -46 45 8 53 27 26 61 -21 27 -45 30
-92 10 -17 -7 -18 -5 -12 21 10 37 12 39 30 25 10 -9 16 -9 21 -1 4 7 -2 14
-14 17 -20 5 -28 32 -14 46 10 10 11 9 41 -23z m-3458 -25 c0 -18 -5 -25 -19
-25 -11 0 -23 5 -26 10 -11 18 3 40 25 40 15 0 20 -7 20 -25z m214 -59 c6 -26
5 -28 -16 -23 -31 9 -178 -32 -178 -50 0 -31 -30 -10 -40 28 -13 46 -7 58 18
43 20 -13 156 19 180 42 17 18 24 10 36 -40z m36 -98 c0 -7 14 -40 31 -73 28
-56 29 -60 13 -72 -31 -23 -64 -12 -42 14 7 9 8 17 1 24 -14 14 -154 -61 -150
-80 1 -8 -4 -16 -11 -18 -7 -3 -21 14 -33 42 -22 50 -19 66 9 49 13 -9 34 -4
90 22 46 21 72 38 69 46 -2 7 -11 12 -21 10 -22 -4 -21 35 2 41 32 8 42 7 42
-5z m-201 -26 c11 -20 -2 -42 -25 -42 -18 0 -26 30 -13 46 16 19 26 18 38 -4z
m3237 -217 c25 -19 54 -35 65 -35 23 0 24 -8 3 -31 -14 -16 -17 -15 -39 7 -35
35 -47 29 -24 -11 19 -31 19 -36 5 -41 -9 -3 -29 -1 -46 4 -16 6 -30 9 -30 6
0 -10 45 -43 59 -44 11 0 10 -5 -4 -20 -21 -23 -35 -26 -35 -7 0 16 -58 72
-84 81 -18 6 -18 8 -3 23 16 16 39 13 106 -14 9 -4 4 12 -13 41 -24 41 -29 76
-11 76 2 0 25 -16 51 -35z m-2923 11 c33 -13 67 -54 67 -79 0 -23 -39 -52 -52
-39 -8 8 -8 15 1 26 27 33 -22 73 -73 60 -28 -7 -86 -66 -86 -88 0 -25 36 -60
54 -53 15 6 19 13 32 56 4 11 9 10 25 -5 41 -37 43 -52 7 -69 -18 -8 -40 -20
-49 -26 -33 -24 -109 55 -109 114 0 34 36 76 84 98 49 22 57 23 99 5z m-205
-34 c3 -20 0 -23 -20 -20 -15 2 -24 11 -26 26 -3 20 0 23 20 20 15 -2 24 -11
26 -26z m-311 -197 c2 -6 -56 -28 -129 -49 -152 -45 -388 -127 -388 -135 0 -3
38 -33 85 -66 65 -47 83 -64 80 -80 -6 -32 -17 -165 -13 -165 2 0 79 25 172
55 173 57 226 68 233 49 2 -6 -39 -23 -94 -39 -54 -16 -154 -48 -222 -72 -68
-24 -126 -41 -128 -39 -3 3 0 53 7 112 6 63 7 110 2 113 -62 41 -192 137 -192
142 0 4 8 9 18 12 9 3 75 26 147 52 156 56 384 125 404 122 8 -1 16 -7 18 -12z
m2358 -96 c359 -28 699 -91 1025 -189 222 -67 240 -73 240 -84 0 -5 -30 -90
-67 -188 -60 -161 -69 -179 -87 -175 -12 2 -82 23 -156 46 -874 267 -1916 261
-2770 -18 l-119 -39 -16 42 c-8 22 -39 106 -69 186 -30 80 -51 148 -48 152 11
10 288 97 412 128 341 86 652 130 1080 154 94 5 435 -4 575 -15z m-2213 -166
c-3 -78 -7 -103 -17 -103 -19 0 -20 8 -17 131 3 106 4 111 20 93 14 -16 17
-36 14 -121z m3652 15 c7 -115 7 -118 -13 -118 -20 0 -21 5 -21 108 0 70 4
112 12 120 6 6 13 11 14 9 1 -1 5 -55 8 -119z m-3344 21 c0 -5 -7 -9 -15 -9
-9 0 -15 9 -15 21 0 18 2 19 15 9 8 -7 15 -16 15 -21z m876 -409 c127 -44 306
-78 470 -90 252 -19 542 18 778 100 64 22 136 28 103 9 -29 -17 -155 -58 -257
-84 -386 -97 -783 -77 -1174 61 -34 12 -44 19 -35 25 19 12 14 13 115 -21z"/>
<path d="M2392 3988 c-26 -26 -7 -98 26 -98 25 0 42 20 42 48 0 51 -38 80 -68
50z"/>
<path d="M2090 3887 c0 -27 13 -36 26 -16 3 6 -1 18 -10 27 -15 15 -16 14 -16
-11z"/>
<path d="M1955 3881 c-3 -6 -1 -20 5 -30 13 -26 42 -16 38 13 -3 22 -32 34
-43 17z"/>
<path d="M1504 3639 c-8 -14 21 -43 35 -35 6 4 11 16 11 27 0 21 -34 27 -46 8z"/>
<path d="M3801 3576 c-8 -10 -9 -16 -1 -21 13 -8 30 3 30 21 0 18 -14 18 -29
0z"/>
<path d="M1271 3436 c-16 -19 -1 -49 34 -72 47 -31 76 25 35 66 -23 23 -53 26
-69 6z"/>
<path d="M4024 3386 c-15 -12 -17 -17 -6 -28 11 -11 14 -10 22 2 9 14 14 40 7
40 -2 0 -12 -6 -23 -14z"/>
<path d="M4113 3270 c-38 -35 -41 -45 -12 -60 37 -21 94 33 72 68 -15 25 -26
23 -60 -8z"/>
<path d="M1171 3327 c-9 -11 -8 -17 4 -27 19 -16 47 -5 43 17 -4 23 -31 28
-47 10z"/>
<path d="M2401 3259 c-189 -21 -466 -90 -676 -167 l-80 -30 -3 -693 c-2 -487
1 -712 8 -754 19 -99 66 -180 155 -270 44 -44 108 -100 143 -125 80 -58 334
-220 344 -220 5 0 8 50 8 110 l0 110 355 0 355 0 0 -110 c0 -60 2 -110 6 -110
8 0 212 129 294 186 161 113 273 229 320 335 l25 54 3 743 2 742 -43 19 c-129
55 -389 128 -582 162 -138 24 -491 34 -634 18z m299 -52 c0 -18 11 -52 25 -77
49 -87 58 -114 57 -172 -1 -44 2 -58 13 -58 25 0 38 40 32 102 l-5 58 19 -24
c98 -124 46 -308 -104 -371 -48 -20 -51 -19 -33 7 26 36 20 74 -18 115 -18 21
-37 48 -41 61 -7 23 -7 23 -27 5 -48 -42 -60 -118 -29 -170 l20 -31 -32 9
c-66 19 -118 76 -120 131 -1 57 20 93 79 132 72 48 94 92 94 191 0 67 3 79 25
100 33 34 45 31 45 -8z m-116 -51 c38 -80 10 -165 -69 -212 -45 -26 -73 -60
-85 -103 -6 -24 -7 -23 -14 15 -12 65 8 118 69 184 54 59 74 106 62 151 -8 30
17 6 37 -35z m251 -551 c0 -19 -8 -20 -174 -23 -102 -1 -179 2 -184 7 -5 5 -7
17 -4 26 6 13 29 15 184 13 170 -3 178 -4 178 -23z m36 -45 c21 -12 25 -40 7
-58 -13 -13 -411 -18 -442 -6 -21 8 -20 50 2 63 23 14 407 14 433 1z m-23
-114 c2 -10 -2 -22 -10 -27 -7 -5 -93 -9 -191 -9 -149 0 -179 2 -183 15 -4 8
-4 22 0 30 5 13 33 15 193 13 175 -3 188 -4 191 -22z m-495 -10 c37 -7 68 -15
70 -17 1 -2 9 -17 17 -34 9 -16 26 -34 38 -40 31 -14 27 -29 -5 -21 -114 25
-189 37 -230 34 -46 -3 -46 -4 22 -11 81 -9 205 -34 221 -45 6 -4 15 -18 19
-31 7 -22 5 -23 -16 -17 -97 27 -137 35 -208 42 -58 5 -81 3 -81 -5 0 -7 24
-11 68 -12 37 0 105 -10 152 -22 80 -21 85 -24 88 -50 3 -25 1 -27 -15 -19
-37 20 -164 42 -230 41 l-68 -2 84 -8 c85 -9 191 -33 223 -50 10 -5 18 -19 18
-31 0 -16 -4 -19 -22 -14 -13 4 -48 13 -78 22 -30 8 -93 17 -140 20 -105 5
-94 -1 23 -15 126 -15 207 -39 217 -65 12 -32 3 -36 -43 -20 -82 30 -277 55
-277 35 0 -4 42 -11 93 -14 120 -7 231 -42 235 -74 4 -28 3 -28 -78 -2 -40 13
-101 22 -160 24 l-95 4 82 -9 c88 -9 229 -44 250 -62 11 -9 19 -48 10 -48 -2
0 -29 9 -59 19 -66 23 -180 42 -240 40 -27 -1 -7 -6 57 -14 137 -18 239 -53
243 -82 4 -28 6 -28 -71 -3 -34 11 -100 24 -147 30 -105 12 -120 13 -120 0 0
-6 29 -10 68 -10 68 0 197 -27 250 -52 32 -16 47 -67 15 -53 -60 27 -195 54
-263 53 l-75 -1 90 -8 c105 -10 206 -39 283 -80 62 -33 103 -36 147 -13 108
59 177 80 312 93 l88 8 -67 2 c-69 1 -172 -17 -245 -43 -43 -15 -43 -15 -43 9
0 21 9 27 83 51 53 17 114 28 175 31 62 4 90 9 83 16 -13 13 -175 -8 -264 -34
-38 -11 -71 -18 -74 -15 -3 2 -2 13 1 24 8 25 124 60 256 78 l95 13 -85 -4
c-75 -4 -188 -27 -243 -50 -16 -7 -18 -4 -15 16 5 41 100 73 264 89 l79 7 -71
2 c-62 1 -124 -11 -241 -45 -20 -5 -23 -3 -23 18 0 22 8 27 73 47 41 13 112
25 165 28 50 3 92 10 92 14 0 20 -181 -1 -268 -30 -55 -19 -70 -14 -53 17 12
23 96 48 228 67 l98 14 -90 -4 c-79 -4 -133 -14 -212 -39 -19 -6 -23 -4 -23
14 0 35 85 62 245 79 l80 8 -67 2 c-58 1 -148 -13 -226 -35 -21 -6 -23 -4 -20
17 4 32 91 58 216 66 50 3 92 10 92 16 0 18 -221 -11 -292 -38 -14 -6 -18 -2
-18 14 0 28 44 47 137 61 172 26 184 30 88 25 -49 -3 -115 -12 -145 -20 -66
-18 -70 -18 -70 -5 0 6 5 10 12 10 20 0 48 32 48 56 0 19 8 24 53 34 28 7 91
14 140 17 l87 6 0 -342 0 -341 -64 0 c-124 0 -290 -42 -384 -97 l-44 -25 -71
36 c-96 48 -210 76 -334 83 l-103 6 0 338 0 339 68 0 c37 -1 97 -7 135 -14z
m-151 -704 c51 -1 126 -10 168 -18 77 -16 243 -75 225 -80 -6 -2 -127 14 -270
34 l-260 38 -3 328 -2 329 22 25 23 24 3 -339 2 -338 92 -3z m1048 301 l0
-323 -22 -5 c-47 -10 -511 -75 -515 -71 -6 6 91 45 168 65 82 23 212 39 277
36 l42 -3 0 336 0 335 25 -23 25 -23 0 -324z m-470 339 c0 -11 -9 -106 -19
-213 -11 -107 -23 -230 -26 -274 -9 -104 -22 -125 -79 -125 -71 0 -72 1 -100
307 -14 150 -26 284 -26 298 l0 25 125 0 c115 0 125 -2 125 -18z m290 -801 c0
-5 -13 -19 -29 -30 -28 -20 -41 -21 -384 -21 -320 0 -358 2 -386 18 -71 40
-53 42 384 42 250 0 415 -4 415 -9z m92 -91 c47 -13 78 -52 78 -97 0 -83 -76
-137 -143 -102 -30 16 -37 28 -37 66 0 43 39 71 78 57 21 -7 27 -16 27 -39 0
-25 -4 -31 -27 -33 -23 -3 -28 1 -28 17 0 24 -15 28 -24 6 -7 -20 28 -55 54
-55 27 0 60 35 60 64 0 70 -98 98 -146 43 -13 -16 -24 -39 -24 -53 l0 -24
-375 0 c-372 0 -375 0 -375 21 0 73 -97 112 -152 62 -27 -25 -23 -79 7 -99 44
-29 98 0 80 44 -6 15 -8 14 -16 -5 -5 -15 -17 -23 -33 -23 -40 0 -44 49 -5 70
27 15 47 12 69 -10 51 -51 2 -127 -75 -117 -54 8 -85 46 -85 108 0 51 25 83
76 99 42 12 971 12 1016 0z m-106 -205 l23 -25 -426 0 -426 0 23 25 23 25 380
0 380 0 23 -25z"/>
<path d="M2565 2293 c4 -38 13 -122 20 -188 l12 -120 2 188 c1 183 1 187 -20
187 -19 0 -20 -4 -14 -67z"/>
<path d="M2391 1126 c-8 -9 -11 -45 -9 -100 3 -86 3 -87 36 -107 l32 -21 0
109 c0 107 -7 133 -36 133 -6 0 -17 -6 -23 -14z"/>
<path d="M2866 1124 c-13 -12 -16 -38 -16 -120 0 -57 2 -104 5 -104 3 0 21 10
40 23 l35 22 0 86 c0 83 -8 109 -36 109 -7 0 -20 -7 -28 -16z"/>
<path d="M4376 2791 c-21 -24 -17 -54 7 -59 51 -10 102 33 76 64 -17 20 -63
17 -83 -5z"/>
<path d="M816 2694 c-20 -19 -20 -29 0 -48 22 -23 62 -30 79 -16 26 22 18 50
-20 66 -42 17 -40 17 -59 -2z"/>
<path d="M2350 754 c-19 -2 -91 -9 -160 -15 -238 -21 -508 -66 -744 -125 -120
-30 -388 -113 -397 -122 -4 -4 9 -47 27 -97 19 -49 46 -120 60 -156 l25 -66
132 42 c434 140 1005 216 1502 201 458 -14 829 -73 1242 -197 72 -21 136 -39
141 -39 10 0 129 308 121 313 -2 2 -62 22 -134 45 -345 110 -729 182 -1120
211 -126 10 -607 13 -695 5z m40 -103 c0 -5 -7 -14 -15 -21 -16 -14 -18 -10
-9 14 6 17 24 22 24 7z m-350 -30 c0 -5 -6 -14 -14 -20 -12 -10 -13 -8 -9 8 5
21 23 30 23 12z m264 -7 c38 -38 7 -104 -49 -104 -30 0 -32 2 -33 42 -1 23 -5
50 -8 60 -4 15 1 18 35 18 23 0 46 -7 55 -16z m285 -8 c17 -20 10 -67 -11 -80
-25 -15 -52 4 -56 40 -6 43 41 71 67 40z m53 -23 c2 -26 8 -38 18 -38 11 0 15
10 14 38 -1 25 3 37 12 37 9 0 14 -12 14 -34 0 -19 2 -41 6 -49 4 -11 -4 -14
-36 -14 -44 0 -45 1 -54 60 -3 27 -1 37 9 37 9 0 15 -14 17 -37z m136 28 c21
-13 10 -44 -18 -52 -25 -6 -22 -9 20 -22 12 -4 11 -6 -4 -12 -26 -11 -50 7
-54 41 -3 18 2 32 14 41 21 15 24 16 42 4z m-323 -11 c-3 -5 -3 -21 1 -36 l7
-28 9 24 c5 13 6 30 4 37 -3 8 2 13 13 13 17 0 18 -3 6 -42 -17 -58 -38 -60
-60 -6 -16 39 -18 41 -25 21 -5 -12 -18 -24 -29 -28 -12 -3 -19 -11 -15 -16 3
-5 14 -7 25 -4 10 4 19 2 19 -4 0 -5 -10 -13 -22 -17 -43 -13 -74 63 -35 88
16 10 108 8 102 -2z m485 -24 c0 -19 3 -41 6 -49 4 -11 0 -14 -13 -11 -15 4
-18 12 -15 40 3 27 1 34 -13 34 -14 0 -16 -7 -13 -35 3 -28 0 -35 -13 -35 -12
0 -16 8 -15 33 0 17 -3 33 -9 34 -5 2 -10 -13 -10 -32 0 -29 -4 -35 -22 -35
-20 0 -21 3 -11 30 7 23 7 34 -2 45 -11 13 -3 15 59 15 l71 0 0 -34z m88 22
c19 -19 14 -37 -13 -44 -30 -7 -33 -24 -5 -24 11 0 20 -4 20 -10 0 -14 -43
-13 -58 2 -18 18 -15 45 8 68 23 23 31 25 48 8z m168 -34 c-21 -20 -20 -41 0
-52 20 -11 3 -25 -20 -16 -21 8 -26 85 -7 100 11 9 18 8 29 -2 11 -12 11 -16
-2 -30z m-1305 23 c-1 -12 -15 -9 -19 4 -3 6 1 10 8 8 6 -3 11 -8 11 -12z
m1247 -39 c2 -37 0 -48 -12 -48 -19 0 -30 17 -16 25 16 10 12 55 -5 55 -16 0
-31 -43 -20 -59 3 -6 -2 -11 -12 -11 -15 0 -18 8 -18 44 l0 45 40 -2 40 -2 3
-47z m305 35 c16 -10 -5 -23 -29 -17 -15 4 -24 2 -24 -6 0 -6 9 -14 20 -17 26
-7 26 -21 -2 -25 -12 -2 -24 -9 -26 -17 -4 -11 2 -13 26 -8 25 5 30 3 25 -8
-5 -15 -39 -20 -66 -9 -12 4 -13 13 -5 46 5 22 6 49 2 60 -6 19 -3 20 32 13
22 -4 42 -9 47 -12z m-1475 -14 c11 0 12 -2 5 -6 -19 -7 -17 -63 2 -63 8 0 15
-5 15 -11 0 -6 -10 -9 -22 -7 -18 2 -24 11 -26 36 -2 17 -8 32 -13 32 -5 0 -4
9 3 20 7 11 14 16 16 10 2 -5 11 -10 20 -11z m96 -4 c5 -15 -18 -45 -35 -45
-6 0 -7 -5 -4 -10 4 -6 15 -8 26 -5 23 8 26 -10 3 -19 -38 -14 -75 35 -54 74
12 23 55 27 64 5z m-319 -5 c-3 -5 -10 -10 -16 -10 -5 0 -9 5 -9 10 0 6 7 10
16 10 8 0 12 -4 9 -10z m111 -17 c-2 -10 -7 -33 -11 -50 -9 -44 -26 -42 -57 6
-21 33 -23 41 -11 45 25 10 35 7 30 -8 -3 -8 1 -22 9 -33 14 -17 15 -16 11 14
-3 30 3 40 26 42 5 1 6 -7 3 -16z m50 -10 c3 -16 8 -36 11 -45 3 -12 -1 -18
-14 -18 -13 0 -18 8 -19 28 0 15 -4 35 -8 45 -6 12 -4 17 8 17 9 0 18 -12 22
-27z m254 17 c0 -5 -9 -10 -20 -10 -11 0 -20 5 -20 10 0 6 9 10 20 10 11 0 20
-4 20 -10z m1140 -10 c0 -5 -9 -10 -20 -10 -11 0 -20 5 -20 10 0 6 9 10 20 10
11 0 20 -4 20 -10z m194 -5 c-4 -8 -1 -15 5 -15 6 0 11 7 11 15 0 16 12 20 23
8 4 -3 -1 -15 -10 -25 -14 -16 -15 -22 -4 -40 7 -11 10 -22 7 -25 -9 -9 -38 6
-31 16 3 5 1 12 -5 16 -5 3 -10 -1 -10 -9 0 -9 -9 -16 -20 -16 -26 0 -26 12 0
28 16 10 18 16 10 32 -14 26 -13 30 10 30 13 0 18 -5 14 -15z m-1804 -6 c10
-7 11 -12 3 -15 -15 -7 0 -60 17 -56 6 1 10 -3 8 -10 -10 -29 -41 -13 -53 27
-17 58 -8 77 25 54z m67 -31 c9 -32 9 -45 0 -50 -20 -13 -24 -9 -23 20 0 15
-3 37 -7 50 -6 16 -5 22 5 22 8 0 19 -19 25 -42z m1847 36 c9 -3 16 -12 16
-20 0 -17 -17 -19 -22 -2 -7 19 -28 -2 -28 -28 0 -17 5 -24 20 -24 11 0 20 -4
20 -10 0 -14 -43 -13 -58 2 -18 18 -15 45 8 68 22 22 22 22 44 14z m150 -36
c-4 -24 -8 -53 -8 -65 -1 -15 -7 -23 -18 -23 -19 0 -33 17 -18 22 6 2 13 27
17 56 4 36 10 52 20 52 12 0 13 -8 7 -42z m52 -14 c-3 -26 -6 -55 -6 -65 0
-13 -7 -19 -21 -19 -16 0 -19 4 -14 18 14 33 25 93 20 103 -4 5 1 9 11 9 14 0
16 -7 10 -46z m-2160 -9 c7 -27 -10 -55 -32 -55 -17 0 -18 -12 -2 -28 8 -8 9
-12 1 -12 -6 0 -17 -2 -25 -5 -9 -4 -13 7 -15 39 -1 24 -6 54 -13 65 -9 18 -8
21 9 21 11 0 23 5 26 10 10 16 44 -7 51 -35z m2053 32 c13 -17 -4 -43 -34 -50
-19 -5 -19 -5 3 -12 27 -9 29 -25 3 -25 -11 0 -27 10 -35 21 -31 45 28 108 63
66z m-2159 -37 c0 -10 -9 -24 -20 -30 -11 -6 -18 -15 -15 -21 4 -5 14 -5 27 2
16 9 19 8 16 -3 -6 -18 -46 -23 -64 -8 -17 15 -18 52 -2 68 20 20 58 15 58 -8z
m-93 -7 c2 -6 -4 -10 -14 -9 -13 1 -18 -6 -18 -24 0 -19 5 -25 22 -25 30 -1
34 -19 5 -23 -31 -5 -52 15 -52 49 0 38 47 64 57 32z m2443 2 c18 -21 6 -43
-27 -48 -27 -4 -27 -5 -5 -12 26 -9 29 -25 4 -25 -40 0 -57 54 -26 84 19 20
38 20 54 1z m-2512 -24 c2 -7 -3 -11 -14 -9 -24 4 -30 -25 -8 -46 19 -19 18
-21 -14 -31 -20 -6 -23 -4 -18 12 3 10 -1 30 -8 45 -14 27 -6 46 13 33 5 -3
13 -1 16 5 8 14 27 8 33 -9z m2614 0 c8 -7 -2 -91 -11 -91 -3 0 -13 5 -21 11
-11 8 -12 12 -2 16 14 6 16 63 2 63 -14 0 -31 -46 -24 -64 4 -11 0 -13 -16 -9
-15 4 -19 10 -14 22 4 9 8 28 8 43 1 26 3 28 36 22 19 -4 38 -9 42 -13z
m-2801 -11 c29 -16 25 -58 -7 -72 -24 -11 -24 -13 -8 -25 20 -14 18 -18 -12
-27 -18 -5 -21 -2 -21 18 0 13 -8 39 -17 57 -18 37 -19 35 14 48 32 13 28 13
51 1z m99 -19 c0 -10 -7 -24 -15 -31 -19 -16 -10 -30 15 -23 27 7 25 -6 -2
-16 -35 -13 -58 4 -58 43 0 39 6 46 37 46 16 0 23 -6 23 -19z m2784 13 c17 -7
22 -34 6 -34 -5 0 -10 5 -10 10 0 18 -29 10 -35 -10 -8 -24 1 -40 21 -40 8 0
14 -4 14 -10 0 -13 -16 -13 -41 0 -33 18 -20 90 17 90 7 0 19 -3 28 -6z m86
-29 c18 -21 6 -43 -27 -48 -27 -4 -27 -5 -5 -12 26 -9 29 -25 4 -25 -41 0 -56
48 -25 82 20 22 36 23 53 3z m30 -85 c0 -5 -7 -10 -16 -10 -8 0 -12 5 -9 10 3
6 10 10 16 10 5 0 9 -4 9 -10z"/>
<path d="M2244 588 c3 -13 6 -31 6 -40 0 -22 23 -23 40 -3 18 22 -2 65 -31 65
-17 0 -20 -4 -15 -22z"/>
<path d="M2544 586 c-8 -22 3 -49 19 -43 6 2 12 14 12 27 0 27 -22 39 -31 16z"/>
<path d="M2745 590 c-3 -5 1 -10 9 -10 9 0 16 5 16 10 0 6 -4 10 -9 10 -6 0
-13 -4 -16 -10z"/>
<path d="M2360 580 c0 -5 4 -10 9 -10 6 0 13 5 16 10 3 6 -1 10 -9 10 -9 0
-16 -4 -16 -10z"/>
<path d="M2990 575 c0 -9 6 -12 15 -9 8 4 15 10 15 15 0 5 -7 9 -15 9 -8 0
-15 -7 -15 -15z"/>
<path d="M2026 561 c-4 -7 -5 -15 -2 -18 9 -9 19 4 14 18 -4 11 -6 11 -12 0z"/>
<path d="M1594 487 c-7 -20 -2 -47 11 -50 14 -3 19 43 6 56 -7 7 -12 6 -17 -6z"/>
<path d="M3655 490 c-3 -5 1 -10 9 -10 9 0 16 5 16 10 0 6 -4 10 -9 10 -6 0
-13 -4 -16 -10z"/>
<path d="M1495 469 c-4 -6 -5 -13 -2 -16 7 -7 27 6 27 18 0 12 -17 12 -25 -2z"/>
<path d="M3850 450 c0 -5 7 -10 15 -10 8 0 15 5 15 10 0 6 -7 10 -15 10 -8 0
-15 -4 -15 -10z"/>
<path d="M1150 390 c0 -22 1 -23 24 -14 23 9 20 34 -4 34 -13 0 -20 -7 -20
-20z"/>
<path d="M1256 411 c-4 -7 -5 -15 -2 -18 9 -9 19 4 14 18 -4 11 -6 11 -12 0z"/>
<path d="M4125 380 c-3 -5 1 -10 9 -10 9 0 16 5 16 10 0 6 -4 10 -9 10 -6 0
-13 -4 -16 -10z"/>
<path d="M5023 455 c0 -22 2 -30 4 -17 2 12 2 30 0 40 -3 9 -5 -1 -4 -23z"/>
</g>
</svg>
